<svg width="90" height="90" viewBox="0 0 90 90" fill="none" xmlns="http://www.w3.org/2000/svg">
<g clip-path="url(#clip0_31_454)">
<path fill-rule="evenodd" clip-rule="evenodd" d="M40.0317 27.3944C40.1438 29.6977 39.8992 31.9092 39.2673 34.0188C37.81 37.8813 34.3653 40.8674 30.0951 41.9069V34.9768V30.6658V6.20654H23.4605V28.067V34.9768V41.9069C19.1903 40.8674 15.7456 37.8813 14.2883 34.0188C13.687 31.7563 13.473 29.5448 13.5239 27.3944V6.20654H6.89954V29.8811C6.89954 39.2979 14.0743 47.1453 23.4605 48.6638V83.9973H30.0951V48.6638C39.4813 47.1453 46.6561 39.2979 46.6561 29.8811V6.20654H40.0317V27.3944Z" fill="url(#paint0_linear_31_454)"/>
<path fill-rule="evenodd" clip-rule="evenodd" d="M79.2787 6.58359C65.2758 8.73397 54.9315 20.7904 54.9315 34.9564V63.4922H76.4659V83.9973H83.1005V34.7016V6.00269L79.2787 6.58359ZM76.4659 56.8678H61.5661V34.9564C61.5661 34.9258 61.5661 34.885 61.5661 34.8545C61.5661 25.4478 67.5586 17.0807 76.4761 14.0641L76.4659 35.7207V56.8678Z" fill="url(#paint1_linear_31_454)"/>
</g>
<defs>
<linearGradient id="paint0_linear_31_454" x1="51.0995" y1="102.046" x2="17.8553" y2="-16.4081" gradientUnits="userSpaceOnUse">
<stop stop-color="#0E42B8"/>
<stop offset="0.568627" stop-color="#1B8CF6"/>
<stop offset="1" stop-color="#65C9FB"/>
</linearGradient>
<linearGradient id="paint1_linear_31_454" x1="74.2747" y1="106.765" x2="56.6437" y2="12.5048" gradientUnits="userSpaceOnUse">
<stop stop-color="#28B1A1"/>
<stop offset="0.6" stop-color="#57DA98"/>
<stop offset="1" stop-color="#9AE974"/>
</linearGradient>
<clipPath id="clip0_31_454">
<rect width="90" height="90" fill="white"/>
</clipPath>
</defs>
</svg>
