<svg width="90" height="90" viewBox="0 0 90 90" fill="none" xmlns="http://www.w3.org/2000/svg">
<path fill-rule="evenodd" clip-rule="evenodd" d="M12.7153 81.7935H18.7574H71.2424H77.2845V75.7514V14.2484V8.2063H71.2424H18.7574H12.7153V14.2484V75.7514V81.7935ZM71.2424 75.7514H18.7574V14.2484H71.2424V75.7514Z" fill="url(#paint0_linear_31_419)"/>
<path fill-rule="evenodd" clip-rule="evenodd" d="M29.6694 57.2645V52.1243H35.3508V46.8938V24.98H40.4911H49.96C56.0021 24.98 60.962 29.9399 60.962 35.982C60.962 42.0241 56.0021 46.8938 49.96 46.8938H40.4911V52.1243H46.2626V57.2645H40.4911V65.0201H35.3508V57.2645H29.6694ZM40.4911 29.6694V42.2946H49.96C53.477 42.2946 56.2726 39.499 56.2726 35.982C56.2726 32.465 53.477 29.6694 49.96 29.6694H40.4911Z" fill="url(#paint1_linear_31_419)"/>
<defs>
<linearGradient id="paint0_linear_31_419" x1="84.4087" y1="83.2364" x2="10.8215" y2="-1.8939" gradientUnits="userSpaceOnUse">
<stop stop-color="#0E42B8"/>
<stop offset="0.568627" stop-color="#1B8CF6"/>
<stop offset="1" stop-color="#65C9FB"/>
</linearGradient>
<linearGradient id="paint1_linear_31_419" x1="51.1324" y1="76.6533" x2="31.5632" y2="28.3167" gradientUnits="userSpaceOnUse">
<stop stop-color="#28B1A1"/>
<stop offset="0.6" stop-color="#57DA98"/>
<stop offset="1" stop-color="#9AE974"/>
</linearGradient>
</defs>
</svg>
