<svg xmlns="http://www.w3.org/2000/svg" width="182" height="50" fill="none"><path fill="#fff" fill-rule="evenodd" d="M23.613 34.118v5.294l14.084-4.06 4.202-1.234 1.006-.294 4.32-1.236V8.176L34.088 0 23.613 6.53 13.138 0 0 8.176v25.942h23.613ZM5.326 11.058l7.812-4.882 10.475 6.53 10.475-6.53 7.811 4.883v17.764l-3.669 1.06-14.617 4.235v-5.295H5.326V11.06Z" clip-rule="evenodd"/><path fill="#fff" fill-rule="evenodd" d="m47.225 37.883-23.612 6.823v-5.294H0v5.294h23.613V50c9.173-2.647 18.346-5.294 27.518-8l-3.906-4.117ZM23.613 28.823l11.895-3.412-11.895-12.588v16Z" clip-rule="evenodd"/><path fill="#fff" d="M85.576 12.468v23.888h-5.124V17.094H70.32v19.262h-5.184V12.468h20.44Zm18.555 13.876-2.945-7.845-2.946 7.845h5.891Zm1.708 4.391h-9.307l-2.061 5.621h-5.478l9.424-23.888h5.478l9.425 23.888h-5.478l-2.003-5.62Zm10.956-18.267h10.131c2.474 0 4.536.761 6.126 2.284 1.649 1.522 2.415 3.454 2.415 5.679 0 2.283-.825 4.157-2.415 5.738-1.59 1.522-3.652 2.283-6.126 2.283h-4.948v7.904h-5.183V12.468Zm9.954 4.626h-4.771v6.791h4.771a3.767 3.767 0 0 0 2.592-.995c.707-.644 1.001-1.464 1.001-2.4 0-.937-.353-1.757-1.001-2.401a3.767 3.767 0 0 0-2.592-.995Zm15.61-4.626 5.654 11.242 4.83-11.242h5.478l-8.423 17.916c-1.001 2.05-2.12 3.63-3.475 4.684-1.355 1.054-3.004 1.58-4.948 1.58-.471 0-.942-.058-1.355-.116a2.924 2.924 0 0 1-1.001-.293l-.353-.117v-4.45c.589.234 1.236.351 2.061.351 1.708 0 3.063-.82 3.947-2.4l.706-1.171-8.599-16.042h5.478v.058ZM171.692 12c1.237 0 2.474.176 3.593.468 1.119.352 2.062.703 2.827 1.171.707.469 1.355.937 1.944 1.405.589.469.943.879 1.237 1.171l.413.527-3.24 3.22c-.059-.117-.177-.234-.295-.35-.117-.176-.412-.41-.765-.82a5.785 5.785 0 0 0-1.355-.996c-.471-.293-1.119-.585-1.885-.82a8.308 8.308 0 0 0-2.415-.35c-2.238 0-4.123.76-5.655 2.224-1.531 1.522-2.238 3.337-2.238 5.62 0 2.226.766 4.1 2.238 5.621 1.532 1.523 3.358 2.225 5.655 2.225.884 0 1.708-.117 2.533-.351a9.384 9.384 0 0 0 2.002-.82c.531-.351 1.002-.644 1.414-.995.412-.351.707-.644.884-.878l.294-.352L182 32.14c-.118.118-.236.293-.412.527-.177.235-.589.586-1.237 1.171-.648.527-1.296 1.054-2.003 1.464-.707.41-1.649.82-2.827 1.171a12.515 12.515 0 0 1-3.652.527c-3.652 0-6.774-1.23-9.248-3.63-2.533-2.459-3.77-5.386-3.77-8.782 0-3.454 1.237-6.382 3.77-8.782C164.918 13.23 168.04 12 171.692 12Z"/></svg>