<svg width="90" height="90" fill="none" xmlns="http://www.w3.org/2000/svg"><g clip-path="url(#a)"><path fill-rule="evenodd" clip-rule="evenodd" d="m80.19 9.811-2.95-.227C75.822 9.471 44.064 7.43 29.603 21.89c-12.59 12.647-9.357 35.104-7.996 41.74L9.414 75.766l4.764 4.763 12.136-12.136a73.414 73.414 0 0 0 14.064 1.361c9.074 0 20.19-1.871 27.675-9.414 14.518-14.404 12.42-46.162 12.363-47.637l-.227-2.892zM63.345 55.633c-8.28 8.28-22.798 7.883-31.077 6.692l7.882-7.713h15.426v-6.748H46.9l6.692-6.749h12.136v-6.748H60.34l7.713-7.713-4.707-4.764-7.77 7.77v-5.388h-6.691v12.08L42.136 43.1v-8.733h-6.748v15.482l-7.883 7.883c-1.021-8.28-1.361-22.798 6.748-31.078 10.038-9.868 31.475-10.548 39.528-10.435.113 8.053-.567 29.433-10.435 39.358v.056z" fill="url(#b)"/></g><defs><linearGradient id="b" x1="0" y1="90" x2="84.556" y2="0" gradientUnits="userSpaceOnUse"><stop stop-color="#28B1A1"/><stop offset=".6" stop-color="#57DA98"/><stop offset="1" stop-color="#9AE974"/></linearGradient><clipPath id="a"><path fill="#fff" d="M0 0h90v90H0z"/></clipPath></defs></svg>