<svg width="90" height="90" fill="none" xmlns="http://www.w3.org/2000/svg"><g clip-path="url(#a)" fill-rule="evenodd" clip-rule="evenodd"><path d="M40.032 27.394c.112 2.304-.133 4.515-.765 6.625-1.457 3.862-4.902 6.848-9.172 7.888V6.206h-6.634v35.701c-4.27-1.04-7.715-4.026-9.173-7.888a23.45 23.45 0 0 1-.764-6.625V6.207H6.9V29.88c0 9.417 7.174 17.264 16.56 18.783v35.333h6.635V48.664c9.386-1.519 16.561-9.366 16.561-18.783V6.207h-6.624v21.187z" fill="url(#b)"/><path d="M79.279 6.584C65.276 8.734 54.932 20.79 54.932 34.956v28.536h21.534v20.505H83.1V6.002l-3.822.582zm-2.813 50.284h-14.9V34.854a21.945 21.945 0 0 1 14.91-20.79l-.01 21.657v21.147z" fill="url(#c)"/></g><defs><linearGradient id="b" x1="51.099" y1="102.046" x2="17.855" y2="-16.408" gradientUnits="userSpaceOnUse"><stop stop-color="#0E42B8"/><stop offset=".569" stop-color="#1B8CF6"/><stop offset="1" stop-color="#65C9FB"/></linearGradient><linearGradient id="c" x1="74.275" y1="106.765" x2="56.644" y2="12.505" gradientUnits="userSpaceOnUse"><stop stop-color="#28B1A1"/><stop offset=".6" stop-color="#57DA98"/><stop offset="1" stop-color="#9AE974"/></linearGradient><clipPath id="a"><path fill="#fff" d="M0 0h90v90H0z"/></clipPath></defs></svg>