<svg width="90" height="90" fill="none" xmlns="http://www.w3.org/2000/svg"><path fill-rule="evenodd" clip-rule="evenodd" d="M12.715 81.793h64.569V8.206H12.715v73.587zm58.527-6.042H18.757V14.248h52.485v61.503z" fill="url(#a)"/><path fill-rule="evenodd" clip-rule="evenodd" d="M29.67 57.264v-5.14h5.68V24.98h14.61c6.042 0 11.002 4.96 11.002 11.002 0 6.042-4.96 10.912-11.002 10.912h-9.469v5.23h5.772v5.14H40.49v7.756h-5.14v-7.755h-5.682zM40.49 29.67v12.626h9.469a6.274 6.274 0 0 0 6.313-6.313 6.274 6.274 0 0 0-6.313-6.313h-9.469z" fill="url(#b)"/><defs><linearGradient id="a" x1="84.409" y1="83.236" x2="10.822" y2="-1.894" gradientUnits="userSpaceOnUse"><stop stop-color="#0E42B8"/><stop offset=".569" stop-color="#1B8CF6"/><stop offset="1" stop-color="#65C9FB"/></linearGradient><linearGradient id="b" x1="51.132" y1="76.653" x2="31.563" y2="28.317" gradientUnits="userSpaceOnUse"><stop stop-color="#28B1A1"/><stop offset=".6" stop-color="#57DA98"/><stop offset="1" stop-color="#9AE974"/></linearGradient></defs></svg>