<svg width="90" height="90" fill="none" xmlns="http://www.w3.org/2000/svg"><g clip-path="url(#a)" fill-rule="evenodd" clip-rule="evenodd"><path d="M3.048 83.927h83.904V27.735L45 4.375 3.048 27.734v56.192zm6.026-6.05V31.225L45 11.331l35.925 19.894v46.652H9.076z" fill="url(#b)"/><path d="M33.296 36.67c-.488-.512-1.186-.791-1.908-.791-.721 0-1.396.28-1.908.791a11.674 11.674 0 0 0-3.443 8.283c0 3.118 1.233 6.096 3.443 8.307a6.302 6.302 0 0 1 1.838 4.467c0 1.676-.651 3.281-1.838 4.468a2.675 2.675 0 0 0-.79 1.908c0 1.489 1.21 2.722 2.698 2.722.722 0 1.42-.302 1.908-.814a11.634 11.634 0 0 0 3.444-8.284c0-3.117-1.233-6.096-3.444-8.306a6.402 6.402 0 0 1-1.838-4.468c0-1.675.675-3.28 1.838-4.467a2.675 2.675 0 0 0 .791-1.908c0-.721-.279-1.42-.79-1.908z" fill="url(#c)"/><path d="M47.26 36.67c-.49-.512-1.187-.791-1.908-.791-.722 0-1.396.28-1.908.791A11.674 11.674 0 0 0 40 44.953c0 3.118 1.233 6.096 3.444 8.307a6.302 6.302 0 0 1 1.838 4.467c0 1.676-.652 3.281-1.838 4.468a2.675 2.675 0 0 0-.791 1.908c0 1.489 1.21 2.722 2.699 2.722.72 0 1.419-.302 1.908-.814a11.634 11.634 0 0 0 3.443-8.284c0-3.117-1.233-6.096-3.443-8.306a6.402 6.402 0 0 1-1.839-4.468c0-1.675.675-3.28 1.839-4.467a2.675 2.675 0 0 0 .79-1.908c0-.721-.278-1.42-.79-1.908z" fill="url(#d)"/><path d="M61.223 36.67c-.489-.512-1.187-.791-1.908-.791-.721 0-1.396.28-1.908.791a11.674 11.674 0 0 0-3.444 8.283c0 3.118 1.233 6.096 3.444 8.307a6.302 6.302 0 0 1 1.838 4.467c0 1.676-.651 3.281-1.838 4.468a2.675 2.675 0 0 0-.791 1.908c0 1.489 1.21 2.722 2.699 2.722.721 0 1.42-.302 1.908-.814a11.634 11.634 0 0 0 3.444-8.284c0-3.117-1.234-6.096-3.444-8.306a6.402 6.402 0 0 1-1.838-4.468c0-1.675.674-3.28 1.838-4.467a2.675 2.675 0 0 0 .79-1.908c0-.721-.278-1.42-.79-1.908z" fill="url(#e)"/></g><defs><linearGradient id="b" x1="96.329" y1="102.378" x2="26.153" y2="-18.754" gradientUnits="userSpaceOnUse"><stop stop-color="#0E42B8"/><stop offset=".569" stop-color="#1B8CF6"/><stop offset="1" stop-color="#65C9FB"/></linearGradient><linearGradient id="c" x1="39.858" y1="57.122" x2="26.944" y2="37.74" gradientUnits="userSpaceOnUse"><stop stop-color="#28B1A1"/><stop offset=".6" stop-color="#57DA98"/><stop offset="1" stop-color="#9AE974"/></linearGradient><linearGradient id="d" x1="53.821" y1="57.122" x2="40.907" y2="37.74" gradientUnits="userSpaceOnUse"><stop stop-color="#28B1A1"/><stop offset=".6" stop-color="#57DA98"/><stop offset="1" stop-color="#9AE974"/></linearGradient><linearGradient id="e" x1="67.784" y1="57.122" x2="54.871" y2="37.74" gradientUnits="userSpaceOnUse"><stop stop-color="#28B1A1"/><stop offset=".6" stop-color="#57DA98"/><stop offset="1" stop-color="#9AE974"/></linearGradient><clipPath id="a"><path fill="#fff" d="M0 0h90v90H0z"/></clipPath></defs></svg>