<svg width="90" height="90" viewBox="0 0 90 90" fill="none" xmlns="http://www.w3.org/2000/svg">
<g clip-path="url(#clip0_31_386)">
<path fill-rule="evenodd" clip-rule="evenodd" d="M77.07 81.6635L82.6844 36.2948H87.9018V30.2835H83.4216H77.4103H64.4235L61.7014 8.33643H55.6901L58.4122 30.2835H31.588L34.2534 8.33643H28.2421L25.5199 30.2835H12.5899H6.57854H2.09839V36.2948H7.31578L12.9301 81.6635H18.9415H71.0587H77.07ZM30.2836 40.775L30.794 36.2948H59.1494L59.7165 40.775H65.7279L65.1608 36.2948H76.6163L71.7959 75.5954H18.2043L13.3271 36.2948H24.7827L24.2156 40.775H30.2836Z" fill="url(#paint0_linear_31_386)"/>
<path fill-rule="evenodd" clip-rule="evenodd" d="M34.14 50.189L42.1362 58.5255L56.087 45.4253L60.4538 50.0756L41.9093 67.4858L29.5464 54.5557L34.14 50.189Z" fill="url(#paint1_linear_31_386)"/>
</g>
<defs>
<linearGradient id="paint0_linear_31_386" x1="61.0209" y1="103.043" x2="7.31578" y2="14.4612" gradientUnits="userSpaceOnUse">
<stop stop-color="#28B1A1"/>
<stop offset="0.6" stop-color="#57DA98"/>
<stop offset="1" stop-color="#9AE974"/>
</linearGradient>
<linearGradient id="paint1_linear_31_386" x1="63.8564" y1="72.6465" x2="38.053" y2="39.017" gradientUnits="userSpaceOnUse">
<stop stop-color="#0E42B8"/>
<stop offset="0.568627" stop-color="#1B8CF6"/>
<stop offset="1" stop-color="#65C9FB"/>
</linearGradient>
<clipPath id="clip0_31_386">
<rect width="90" height="90" fill="white"/>
</clipPath>
</defs>
</svg>
