<svg width="90" height="90" fill="none" xmlns="http://www.w3.org/2000/svg"><g clip-path="url(#a)" fill-rule="evenodd" clip-rule="evenodd"><path d="m77.07 81.663 5.614-45.368h5.218v-6.012H64.424L61.7 8.337h-6.01l2.721 21.947H31.588l2.665-21.947h-6.01L25.52 30.283H2.099v6.012h5.217l5.614 45.368h64.14zM30.284 40.776l.51-4.48h28.355l.568 4.48h6.01l-.566-4.48h11.455l-4.82 39.3H18.204l-4.877-39.3h11.456l-.567 4.48h6.068z" fill="url(#b)"/><path d="m34.14 50.189 7.996 8.337 13.951-13.1 4.367 4.65-18.545 17.41-12.363-12.93 4.594-4.367z" fill="url(#c)"/></g><defs><linearGradient id="b" x1="61.021" y1="103.043" x2="7.316" y2="14.461" gradientUnits="userSpaceOnUse"><stop stop-color="#28B1A1"/><stop offset=".6" stop-color="#57DA98"/><stop offset="1" stop-color="#9AE974"/></linearGradient><linearGradient id="c" x1="63.856" y1="72.647" x2="38.053" y2="39.017" gradientUnits="userSpaceOnUse"><stop stop-color="#0E42B8"/><stop offset=".569" stop-color="#1B8CF6"/><stop offset="1" stop-color="#65C9FB"/></linearGradient><clipPath id="a"><path fill="#fff" d="M0 0h90v90H0z"/></clipPath></defs></svg>