<svg width="90" height="90" fill="none" xmlns="http://www.w3.org/2000/svg"><g clip-path="url(#a)"><path fill-rule="evenodd" clip-rule="evenodd" d="m62.614 38.16-.117.116-.163.14-.209.232c-.093.14-.186.28-.28.442-.069.093-.115.21-.162.302l-.07.233-.07.233-.023.116-.023.093a6.803 6.803 0 0 1-6.724 5.538 6.85 6.85 0 0 1-4.375-1.559 6.803 6.803 0 0 1-2.327-3.932l-.07-.28-.07-.279-.023-.046-.023-.07c-.07-.14-.116-.256-.186-.349-.07-.163-.186-.303-.28-.442l-.139-.186-.116-.093-.163-.163-.07-.047c-.14-.116-.279-.21-.419-.279a2.345 2.345 0 0 0-.349-.163l-.162-.07-.28-.07-.163-.046c-.07 0-.163-.023-.232-.023l-.186-.024h-.28l-.186.024c-.07 0-.163.023-.233.023l-.325.093-.21.047-.07.046a2.345 2.345 0 0 0-.349.163c-.14.093-.302.186-.418.28l-.14.116-.163.162-.14.14-.046.07c-.116.14-.21.28-.302.442-.047.093-.093.21-.163.349l-.023.07-.117.349-.046.256a6.927 6.927 0 0 1-2.327 3.932 6.85 6.85 0 0 1-4.374 1.559 6.803 6.803 0 0 1-6.725-5.538l-.07-.302-.07-.21-.07-.163c-.023-.093-.092-.209-.139-.325a4.71 4.71 0 0 0-.302-.42l-.14-.185-.163-.14-.163-.163a1.77 1.77 0 0 0-.442-.279c-.116-.07-.233-.116-.326-.163l-.232-.093-.35-.093h-.023c-.093 0-.163-.023-.232-.023l-.186-.024h-.303l-.186.024c-.07 0-.14.023-.233.023l-.326.093-.186.047-.093.046c-.116.047-.232.093-.325.163-.163.093-.303.186-.443.28l-.116.116-.163.14-.163.185-.046.047c-.093.14-.186.28-.28.442-.07.093-.116.21-.162.349l-.07.163-.07.256-.046.256a6.838 6.838 0 0 1-2.35 3.932 6.803 6.803 0 0 1-4.375 1.559 6.849 6.849 0 0 1-4.374-1.559c-1.21-1.024-2.071-2.443-2.35-4.025-.303-1.676-1.931-2.793-3.607-2.49-1.675.303-2.792 1.931-2.49 3.607.56 3.001 2.141 5.7 4.491 7.655a13.003 13.003 0 0 0 8.33 3.025c3.072 0 5.98-1.07 8.33-3.025.256-.21.512-.442.745-.675l.698-.675.698.675c.256.233.512.465.768.675a12.956 12.956 0 0 0 8.33 3.025 13.003 13.003 0 0 0 9.074-3.7l.698-.675.698.675a13.003 13.003 0 0 0 9.074 3.7c3.072 0 5.98-1.07 8.33-3.025a19.9 19.9 0 0 0 .768-.675l.698-.675.675.675c.256.233.512.465.768.675a12.957 12.957 0 0 0 8.33 3.025c3.048 0 5.98-1.07 8.33-3.025a13.042 13.042 0 0 0 4.49-7.655c.303-1.676-.814-3.304-2.49-3.607-1.675-.303-3.303.814-3.606 2.49-.28 1.582-1.14 3.001-2.35 4.025a6.85 6.85 0 0 1-4.374 1.559 6.803 6.803 0 0 1-4.375-1.559 6.838 6.838 0 0 1-2.35-3.932l-.046-.28-.07-.255-.07-.163c-.046-.117-.093-.233-.163-.35-.093-.139-.186-.302-.302-.418l-.093-.117-.14-.162-.186-.163-.047-.047c-.14-.093-.279-.21-.442-.279a2.123 2.123 0 0 0-.325-.163l-.163-.07-.28-.07-.162-.046c-.093 0-.163-.023-.233-.023l-.186-.024h-.303l-.186.024c-.07 0-.14.023-.232.023l-.303.07-.21.07-.092.046c-.117.047-.21.093-.326.163-.163.07-.303.186-.442.28zM12.61 66.964a13.09 13.09 0 0 0 4.49 7.655 13.003 13.003 0 0 0 8.33 3.025 12.91 12.91 0 0 0 8.33-3.025c.28-.21.512-.442.768-.675l.698-.675.699.675a13.003 13.003 0 0 0 9.075 3.7 13.003 13.003 0 0 0 9.073-3.7l.698-.675.699.675c.255.233.488.466.767.675a12.91 12.91 0 0 0 8.33 3.025c3.048 0 5.98-1.07 8.33-3.025a13.09 13.09 0 0 0 4.49-7.655c.303-1.675-.814-3.28-2.489-3.607-1.675-.302-3.304.815-3.606 2.49a6.91 6.91 0 0 1-2.374 4.025c-1.21 1.024-2.769 1.56-4.35 1.56-1.606 0-3.165-.536-4.375-1.56a6.837 6.837 0 0 1-2.35-3.932l-.07-.349-.07-.186-.046-.14c-.047-.14-.117-.256-.163-.349a2.967 2.967 0 0 0-.303-.442l-.14-.163-.162-.163-.186-.163a2.63 2.63 0 0 0-.42-.279 1.604 1.604 0 0 0-.348-.163l-.07-.046-.233-.07-.302-.07c-.07 0-.14-.023-.233-.023l-.186-.023h-.28l-.162.023c-.093 0-.186.023-.256.023l-.186.047-.21.046-.209.093a2.345 2.345 0 0 0-.349.163l-.419.28-.116.116-.21.21-.162.162c-.093.14-.21.28-.28.442-.07.093-.116.21-.186.35l-.023.092v.024l-.093.302-.047.256c-.325 1.536-1.14 2.932-2.35 3.932A6.803 6.803 0 0 1 45 71.433a6.803 6.803 0 0 1-4.374-1.56c-1.21-1-2.025-2.396-2.35-3.932l-.07-.349-.07-.233-.023-.093c-.07-.14-.117-.256-.187-.349-.093-.163-.186-.302-.279-.442l-.163-.163-.14-.163-.185-.163c-.14-.092-.28-.209-.42-.279a1.8 1.8 0 0 0-.371-.163l-.07-.046-.117-.047-.232-.046-.163-.047c-.07 0-.163-.023-.256-.023l-.163-.023h-.302l-.163.023c-.093 0-.163.023-.256.023l-.163.047-.21.07-.209.07c-.14.046-.256.093-.349.162-.163.093-.302.187-.442.28l-.116.116-.21.21-.14.162c-.116.14-.209.28-.302.442-.046.093-.116.21-.163.35l-.093.279-.093.395a6.838 6.838 0 0 1-2.35 3.932c-1.21 1.024-2.769 1.56-4.374 1.56-1.582 0-3.141-.536-4.351-1.56a6.91 6.91 0 0 1-2.374-4.025c-.302-1.675-1.93-2.792-3.606-2.49-1.676.326-2.792 1.932-2.49 3.607z" fill="url(#b)"/><path d="M83.601 11.355H6.375v7.469h77.226v-7.47z" fill="url(#c)"/></g><defs><linearGradient id="b" x1="96.655" y1="86.975" x2="26.037" y2="25.804" gradientUnits="userSpaceOnUse"><stop stop-color="#0E42B8"/><stop offset=".569" stop-color="#1B8CF6"/><stop offset="1" stop-color="#65C9FB"/></linearGradient><linearGradient id="c" x1="100.401" y1="35.367" x2="11.075" y2="11.96" gradientUnits="userSpaceOnUse"><stop stop-color="#28B1A1"/><stop offset=".6" stop-color="#57DA98"/><stop offset="1" stop-color="#9AE974"/></linearGradient><clipPath id="a"><path fill="#fff" d="M0 0h90v90H0z"/></clipPath></defs></svg>