<svg xmlns="http://www.w3.org/2000/svg" width="157" height="130" fill="none"><path fill="#FEFEFE" d="m126.494 69.137-.687 2.647v-7.612h-1.684V76.2h1.942l1.579-5.517.776-2.956V76.2h1.701V64.17h-2.079l-1.548 4.966Zm-6.535-5.1c-1.856 0-2.82 1.096-2.82 3.02v6.254c0 1.926.964 3.028 2.82 3.028 1.854 0 2.815-1.102 2.815-3.028v-1.595h-1.786v1.72c0 .858-.378 1.166-.98 1.166-.6 0-.978-.308-.978-1.166V66.94c0-.86.378-1.189.978-1.189.602 0 .98.329.98 1.189v1.286h1.786v-1.169c0-1.924-.961-3.02-2.815-3.02Zm-6.917 0c-1.855 0-2.818 1.096-2.818 3.02v6.254c0 1.926.963 3.028 2.818 3.028 1.858 0 2.818-1.102 2.818-3.028v-1.595h-1.787v1.72c0 .858-.377 1.166-.979 1.166-.601 0-.98-.308-.98-1.166V66.94c0-.86.379-1.189.98-1.189.602 0 .979.329.979 1.189v1.286h1.787v-1.169c0-1.924-.96-3.02-2.818-3.02Zm-12.913 4.792c0 .86-.324 1.135-.927 1.135h-.895V65.89h.895c.603 0 .927.275.927 1.134v1.805Zm-.927-4.657H96.42V76.2h1.888v-4.52h.895c1.89 0 2.819-1.048 2.819-2.972v-1.565c0-1.923-.929-2.972-2.819-2.972Zm7.822 9.264c0 .858-.377 1.184-.979 1.184-.6 0-.98-.326-.98-1.184V66.94c0-.86.38-1.189.98-1.189.602 0 .979.329.979 1.189v6.496Zm-.979-9.399c-1.856 0-2.87 1.096-2.87 3.02v6.254c0 1.926 1.014 3.028 2.87 3.028s2.871-1.102 2.871-3.028v-6.254c0-1.924-1.015-3.02-2.871-3.02Zm27.939 5.1-.687 2.647v-7.612h-1.683V76.2h1.941l1.58-5.517.774-2.956V76.2h1.703V64.17h-2.081l-1.547 4.966Zm-29.032-10.14c0 .862-.378 1.188-.982 1.188-.6 0-.978-.326-.978-1.187v-6.496c0-.858.378-1.184.978-1.184.604 0 .982.326.982 1.184v6.496Zm-.982-9.398c-1.851 0-2.866 1.102-2.866 3.026v6.254c0 1.925 1.015 3.025 2.866 3.025 1.858 0 2.873-1.1 2.873-3.025v-6.254c0-1.924-1.015-3.026-2.873-3.026Zm31.751 12.167h1.892V49.739h-1.892v12.027Zm-48.848 0h1.89v-10.31h2.149v10.31h1.924V49.739h-5.963v12.027Zm9.364-10.31h.892c.602 0 .93.275.93 1.134v1.804c0 .86-.328 1.132-.93 1.132h-.892v-4.07Zm3.71 2.816v-1.564c0-1.923-.926-2.969-2.818-2.969h-2.783v12.027h1.891v-4.517h.892c1.892 0 2.818-1.05 2.818-2.977Zm30.979 1.704h.895c.599 0 .926.275.926 1.134v1.805c0 .856-.327 1.133-.926 1.133h-.895v-4.072Zm3.712 2.818V57.23c0-1.927-.929-2.974-2.817-2.974h-.895V49.74h-1.891v12.027h2.786c1.888 0 2.817-1.05 2.817-2.972Zm-8.779 2.972v-10.31h1.975v-1.717h-5.844v1.716h1.977v10.31h1.892Zm-6.779 0h1.942l-2.628-6.668 2.628-5.359h-1.89l-2.473 5.24v-5.24h-1.892v12.027h1.892V58.07l.584-1.1 1.837 4.796Zm-5.67-10.31v-1.717h-5.155v12.027h5.155v-1.718h-3.263v-3.521h2.595v-1.722h-2.595v-3.35h3.263Zm-26.514-9.28h2.147v5.155h1.926V35.3h-1.926v5.157h-2.147v-5.156h-1.89V47.33h1.89v-5.156Zm-5.194 2.39c0 .856-.38 1.186-.98 1.186-.604 0-.98-.33-.98-1.187v-6.498c0-.856.376-1.184.98-1.184.6 0 .98.328.98 1.184v6.498Zm-.98-9.402c-1.858 0-2.87 1.1-2.87 3.024v6.256c0 1.924 1.012 3.021 2.87 3.021 1.854 0 2.869-1.097 2.869-3.021v-6.256c0-1.924-1.015-3.024-2.87-3.024Zm57.093 1.856v-1.718h-5.153V47.33h5.153v-1.719h-3.264v-3.524h2.597v-1.715h-2.597V37.02h3.264Zm-43.32 6.496.91-6.085.912 6.085h-1.822ZM96.9 47.33h1.908L96.883 35.3h-2.766l-1.926 12.03h1.736l.327-2.184h2.32l.326 2.184ZM68.328 35.3h-1.925v10.311h-2.146v-10.31h-1.89V47.33h4.947v1.615h1.84v-3.298h-.826V35.302Zm48.66 6.874h2.148v5.156h1.925V35.3h-1.925v5.157h-2.148v-5.156h-1.892V47.33h1.892v-5.156Zm-6.942-.636h.893c.601 0 .927.277.927 1.134v1.804c0 .858-.326 1.135-.927 1.135h-.893V41.54Zm3.712 2.82v-1.566c0-1.924-.929-2.972-2.819-2.972h-.893v-4.52h-1.893v12.03h2.786c1.89 0 2.819-1.05 2.819-2.973Zm10.7-2.82h.896c.601 0 .927.277.927 1.134v1.804c0 .858-.326 1.135-.927 1.135h-.896V41.54Zm3.715 2.82v-1.566c0-1.924-.931-2.972-2.819-2.972h-.896v-4.52h-1.889v12.03h2.785c1.888 0 2.819-1.05 2.819-2.973Zm-25.339-.07.204-7.269h1.651v10.31h1.925V35.303h-5.342l-.311 9.09c-.033 1.116-.308 1.24-1.168 1.24v1.717h.292c1.891 0 2.681-.86 2.749-3.06Zm-30.006-4.022-.687 2.648v-7.613h-1.685V47.33h1.94l1.581-5.515.773-2.959v8.474h1.703V35.3h-2.081l-1.544 4.966Zm-15.97 3.249.91-6.085.91 6.085h-1.82Zm-.379-8.214L54.554 47.33h1.737l.326-2.184h2.32l.325 2.184h1.91L59.244 35.3h-2.766Zm74.666 0h-1.89v12.03h1.89v-12.03Zm-79.714 5.156h-2.149v-5.156h-1.89V47.33h1.89v-5.156h2.149v5.156h1.924V35.3h-1.924v5.157Z"/><path fill="#FEFEFE" d="M155.434 40.685a.325.325 0 0 1-.182.294l-.019.01-.021.013-13.639 7.736V32.761c0-.677-.549-1.226-1.224-1.226H45.576c-.477 0-.91.277-1.11.708L4.801 117.305l42.122-116.2a.322.322 0 0 1 .3-.206h107.885c.179 0 .326.148.326.328v39.458Zm-15.673 36.133-137.4 50.008L45.95 33.35h93.81v43.468ZM155.108 0H47.223c-.5 0-.951.306-1.134.774L.514 126.5l-.396.847c-.395.848.26 1.745 1.103 1.745.14 0 .283-.024.427-.076l139.12-50.636c.483-.176.805-.637.805-1.148V49.77l14.08-7.987c.418-.21.68-.632.68-1.098V1.227c0-.68-.549-1.227-1.225-1.227Z"/><path fill="#FEFEFE" d="M98.909 14.9h-2.667v7.354h-1.474v-7.355h-2.644v-1.198h6.785V14.9ZM103.109 18.171l1.714-4.47h1.652l-2.979 7.096-.27.535c-.391.697-1.025 1.046-1.903 1.046l-.611-.035.012-1.175c.093.015.26.023.499.023.423 0 .72-.18.892-.54l.308-.722-2.928-6.228h1.623l1.991 4.47ZM109.094 19.081v3.173h-1.486V13.7h3.272c.955 0 1.713.25 2.275.748.563.498.843 1.156.843 1.976 0 .838-.275 1.492-.824 1.958-.551.467-1.322.7-2.313.7h-1.767Zm0-1.197h1.786c.527 0 .932-.125 1.21-.374.278-.248.416-.608.416-1.078 0-.462-.14-.832-.423-1.107-.281-.276-.669-.417-1.161-.426h-1.828v2.985ZM120.536 13.701h1.487v8.553h-1.487v-6.092l-3.753 6.092h-1.486V13.7h1.486V19.8l3.753-6.098ZM128.079 16.033c0-.384-.144-.69-.434-.917-.29-.227-.684-.34-1.182-.34-.426 0-.782.113-1.068.338a1.059 1.059 0 0 0-.429.872h-1.48c0-.465.129-.88.387-1.245a2.533 2.533 0 0 1 1.075-.85 3.724 3.724 0 0 1 1.515-.301c.98 0 1.74.214 2.283.64.542.427.813 1.024.813 1.792 0 .386-.117.743-.352 1.069-.235.324-.565.58-.987.77.478.163.843.413 1.095.748.253.335.38.75.38 1.248 0 .768-.294 1.377-.882 1.83-.587.452-1.37.678-2.35.678a3.995 3.995 0 0 1-1.636-.323c-.487-.215-.854-.509-1.098-.881a2.273 2.273 0 0 1-.368-1.28h1.481c0 .368.152.678.458.931.306.252.695.378 1.163.378.525 0 .947-.123 1.266-.37.32-.245.479-.567.479-.962 0-.483-.14-.832-.419-1.05-.28-.216-.69-.326-1.231-.326h-1.006v-1.174h.952c1.05 0 1.575-.425 1.575-1.275ZM133.002 13.701l2.466 6.557 2.462-6.557h1.92v8.553h-1.479v-2.82l.146-3.771-2.526 6.59h-1.062l-2.52-6.584.147 3.766v2.819h-1.481V13.7h1.927Z"/></svg>