<svg xmlns="http://www.w3.org/2000/svg" width="24" height="24" fill="none"><g clip-path="url(#a)"><path fill="#57DA98" d="M12 2C6.478 2 2 6.478 2 12s4.478 10 10 10c5.523 0 10-4.478 10-10S17.523 2 12 2Zm5.28 14.591-.8.801c-.143.143-.562.232-.575.232a9.45 9.45 0 0 1-6.764-2.765 9.46 9.46 0 0 1-2.766-6.787s.092-.408.234-.55l.801-.8c.293-.295.856-.428 1.25-.296l.169.057c.393.131.805.566.914.966l.403 1.479c.108.401-.038.973-.331 1.265l-.535.535a5.679 5.679 0 0 0 3.993 3.995l.535-.535c.294-.295.865-.441 1.266-.333l1.478.405c.4.11.835.52.967.913l.056.17c.13.394-.001.956-.294 1.248Z"/></g><defs><clipPath id="a"><path fill="#fff" d="M2 2h20v20H2z"/></clipPath></defs></svg>